<svg width="1867" height="1167" viewBox="0 0 1867 1167" fill="none" xmlns="http://www.w3.org/2000/svg">
<g clip-path="url(#clip0_447_126)">
<path d="M933.344 112.721V229.861C891.877 229.861 851.062 227.043 811.051 221.632L826.34 105.521C861.347 110.254 897.058 112.721 933.344 112.721Z" stroke="black" stroke-width="3.63333" stroke-miterlimit="10"/>
<path d="M721.318 84.0283C755.478 93.4693 790.541 100.68 826.341 105.521L811.052 221.632C770.141 216.102 730.066 207.862 691.029 197.069L721.318 84.0283Z" stroke="black" stroke-width="3.63333" stroke-miterlimit="10"/>
<path d="M704.042 1034.46L688.756 1150.58C650.89 1145.47 613.405 1139.14 576.301 1131.73L598.616 1016.79C633.401 1023.74 668.542 1029.67 704.042 1034.46Z" stroke="black" stroke-width="3.63333" stroke-miterlimit="10"/>
<path d="M478.988 988.412C518.318 999.282 558.222 1008.73 598.614 1016.79L576.299 1131.73C533.214 1123.13 490.648 1113.05 448.699 1101.46L478.988 988.412Z" stroke="black" stroke-width="3.63333" stroke-miterlimit="10"/>
<path d="M818.43 1045.99L810.767 1162.88C769.715 1160.13 729.03 1156.01 688.756 1150.58L704.041 1034.46C741.8 1039.56 779.945 1043.42 818.43 1045.99Z" stroke="black" stroke-width="3.63333" stroke-miterlimit="10"/>
<path d="M933.344 1049.84V1166.98C892.151 1166.98 851.281 1165.59 810.766 1162.88L818.429 1045.99C856.41 1048.54 894.725 1049.84 933.344 1049.84Z" stroke="black" stroke-width="3.63333" stroke-miterlimit="10"/>
<path d="M704.041 1034.46L719.326 918.352C754.567 923.102 790.167 926.702 826.089 929.112L818.43 1046C779.941 1043.41 741.8 1039.56 704.041 1034.46Z" stroke="black" stroke-width="3.63333" stroke-miterlimit="10"/>
<path d="M826.091 929.112C861.539 931.482 897.302 932.702 933.347 932.702V1049.84C894.728 1049.84 856.413 1048.54 818.432 1046L826.091 929.112Z" stroke="black" stroke-width="3.63333" stroke-miterlimit="10"/>
<path d="M620.931 901.862L598.616 1016.79C558.224 1008.73 518.32 999.282 478.99 988.412L509.279 875.372C545.987 885.512 583.231 894.332 620.931 901.862Z" stroke="black" stroke-width="3.63333" stroke-miterlimit="10"/>
<path d="M719.328 918.352L704.043 1034.46C668.543 1029.67 633.399 1023.74 598.613 1016.79L620.932 901.852C653.395 908.342 686.195 913.872 719.328 918.352Z" stroke="black" stroke-width="3.63333" stroke-miterlimit="10"/>
<path d="M262.432 912.461L217.706 1020.44C180.136 1004.34 143.199 987.011 106.943 968.511L158.595 863.771C192.581 881.121 227.21 897.371 262.432 912.461Z" stroke="black" stroke-width="3.63333" stroke-miterlimit="10"/>
<path d="M106.944 968.512C70.5926 949.952 34.926 930.222 0 909.332L58.3334 808.302C91.0778 827.872 124.515 846.382 158.593 863.782L106.944 968.512Z" stroke="black" stroke-width="3.63333" stroke-miterlimit="10"/>
<path d="M478.988 988.412L448.699 1101.46C409.188 1090.54 370.206 1078.31 331.795 1064.84L369.391 954.082C405.399 966.712 441.947 978.182 478.988 988.412Z" stroke="black" stroke-width="3.63333" stroke-miterlimit="10"/>
<path d="M369.392 954.082L331.796 1064.84C293.17 1051.29 255.122 1036.48 217.703 1020.44L262.433 912.462C297.511 927.492 333.181 941.382 369.392 954.082Z" stroke="black" stroke-width="3.63333" stroke-miterlimit="10"/>
<path d="M262.434 912.461L307.16 804.481C339.9 818.511 373.193 831.471 406.989 843.331L369.393 954.081C333.182 941.381 297.512 927.491 262.434 912.461Z" stroke="black" stroke-width="3.63333" stroke-miterlimit="10"/>
<path d="M406.991 843.332C440.598 855.112 474.709 865.812 509.28 875.372L478.991 988.412C441.95 978.172 405.402 966.712 369.395 954.082L406.991 843.332Z" stroke="black" stroke-width="3.63333" stroke-miterlimit="10"/>
<path d="M58.334 808.302L116.667 707.262C147.23 725.532 178.438 742.802 210.245 759.042L158.593 863.772C124.516 846.382 91.0785 827.872 58.334 808.302Z" stroke="black" stroke-width="3.63333" stroke-miterlimit="10"/>
<path d="M262.433 912.462C227.211 897.372 192.581 881.122 158.596 863.772L210.244 759.042C241.966 775.232 274.285 790.392 307.159 804.482L262.433 912.462Z" stroke="black" stroke-width="3.63333" stroke-miterlimit="10"/>
<path d="M721.319 84.0278L691.03 197.069C651.407 186.117 612.848 172.554 575.533 156.572L620.259 48.5908C652.907 62.5758 686.652 74.4458 721.319 84.0278Z" stroke="black" stroke-width="3.63333" stroke-miterlimit="10"/>
<path d="M525.005 0C555.528 18.245 587.339 34.493 620.257 48.593L575.531 156.57C537.909 140.459 501.553 121.889 466.672 101.037L525.005 0Z" stroke="black" stroke-width="3.63333" stroke-miterlimit="10"/>
<path d="M600.161 536.192C636.054 546.112 672.624 554.342 709.702 561.072L689.365 676.402C648.913 669.072 609.017 660.102 569.861 649.282L600.161 536.192Z" stroke="black" stroke-width="3.63333" stroke-miterlimit="10"/>
<path d="M600.161 536.192L569.861 649.282C530.306 638.342 491.528 625.512 453.465 611.192L493.465 501.292C528.358 514.412 563.902 526.172 600.161 536.192Z" stroke="black" stroke-width="3.63333" stroke-miterlimit="10"/>
<path d="M600.161 536.192C563.902 526.172 528.358 514.412 493.465 501.292L533.454 391.422C565.176 403.352 597.491 414.042 630.45 423.152L600.161 536.192Z" stroke="black" stroke-width="3.63333" stroke-miterlimit="10"/>
<path d="M340.971 563.091C304.164 545.371 268.249 526.061 233.338 505.191L291.671 404.151C323.675 423.281 356.597 440.981 390.342 457.211L340.971 563.091Z" stroke="black" stroke-width="3.63333" stroke-miterlimit="10"/>
<path d="M390.339 457.212C423.936 473.382 458.343 488.082 493.465 501.292L453.465 611.192C415.15 596.782 377.621 580.722 340.969 563.082L390.339 457.212Z" stroke="black" stroke-width="3.63333" stroke-miterlimit="10"/>
<path d="M291.67 404.152L350.003 303.112C379.1 320.502 409.029 336.592 439.703 351.352L390.34 457.212C356.6 440.982 323.674 423.282 291.67 404.152Z" stroke="black" stroke-width="3.63333" stroke-miterlimit="10"/>
<path d="M439.703 351.352C470.244 366.042 501.525 379.412 533.455 391.422L493.466 501.292C458.344 488.082 423.936 473.382 390.34 457.212L439.703 351.352Z" stroke="black" stroke-width="3.63333" stroke-miterlimit="10"/>
<path d="M810.849 692.881C769.819 689.171 729.301 683.651 689.367 676.401L709.704 561.071C746.308 567.711 783.449 572.781 821.056 576.191L810.849 692.881Z" stroke="black" stroke-width="3.63333" stroke-miterlimit="10"/>
<path d="M821.057 576.192C858.046 579.542 895.494 581.282 933.346 581.282V698.422C892.053 698.422 851.202 696.532 810.85 692.882L821.057 576.192Z" stroke="black" stroke-width="3.63333" stroke-miterlimit="10"/>
<path d="M709.703 561.072L730.033 445.762C763.311 451.802 797.074 456.422 831.266 459.512L821.055 576.192C783.448 572.782 746.307 567.712 709.703 561.072Z" stroke="black" stroke-width="3.63333" stroke-miterlimit="10"/>
<path d="M831.264 459.512C864.89 462.562 898.935 464.142 933.346 464.142V581.282C895.494 581.282 858.046 579.542 821.057 576.192L831.264 459.512Z" stroke="black" stroke-width="3.63333" stroke-miterlimit="10"/>
<path d="M600.162 536.191L630.451 423.151C663.081 432.171 696.325 439.651 730.036 445.771L709.703 561.071C672.625 554.341 636.055 546.111 600.162 536.191Z" stroke="black" stroke-width="3.63333" stroke-miterlimit="10"/>
<path d="M1808.35 808.302L1866.69 909.332C1831.76 930.222 1796.09 949.952 1759.74 968.512L1708.09 863.772C1742.17 846.382 1775.61 827.872 1808.35 808.302Z" stroke="black" stroke-width="3.63333" stroke-miterlimit="10"/>
<path d="M1708.09 863.771L1759.75 968.511C1723.49 987.011 1686.55 1004.34 1648.98 1020.44L1604.25 912.461C1639.48 897.371 1674.1 881.121 1708.09 863.771Z" stroke="black" stroke-width="3.63333" stroke-miterlimit="10"/>
<path d="M1604.25 912.462L1648.98 1020.44C1611.56 1036.47 1573.52 1051.29 1534.89 1064.84L1497.29 954.082C1533.51 941.382 1569.18 927.492 1604.25 912.462Z" stroke="black" stroke-width="3.63333" stroke-miterlimit="10"/>
<path d="M1497.29 954.082L1534.89 1064.84C1496.48 1078.31 1457.5 1090.54 1417.99 1101.46L1387.7 988.422C1424.74 978.172 1461.29 966.722 1497.29 954.082Z" stroke="black" stroke-width="3.63333" stroke-miterlimit="10"/>
<path d="M1268.07 1016.79L1290.39 1131.73C1250.5 1139.68 1210.17 1146.36 1169.41 1151.67L1154.66 1035.48C1192.87 1030.51 1230.68 1024.25 1268.07 1016.79Z" stroke="black" stroke-width="3.63333" stroke-miterlimit="10"/>
<path d="M1387.7 988.412L1417.99 1101.46C1376.04 1113.05 1333.48 1123.14 1290.39 1131.72L1268.07 1016.79C1308.47 1008.74 1348.37 999.282 1387.7 988.412Z" stroke="black" stroke-width="3.63333" stroke-miterlimit="10"/>
<path d="M1055.92 1162.84C1015.4 1165.56 974.54 1166.98 933.344 1166.98V1049.84C971.966 1049.84 1010.28 1048.51 1048.26 1045.96L1055.92 1162.84Z" stroke="black" stroke-width="3.63333" stroke-miterlimit="10"/>
<path d="M1154.66 1035.48L1169.42 1151.66C1131.92 1156.55 1094.08 1160.27 1055.92 1162.84L1048.26 1045.96C1084.03 1043.55 1119.51 1040.06 1154.66 1035.48Z" stroke="black" stroke-width="3.63333" stroke-miterlimit="10"/>
<path d="M1656.44 759.042C1688.25 742.802 1719.46 725.532 1750.02 707.262L1808.35 808.302C1775.61 827.872 1742.17 846.382 1708.09 863.772L1656.44 759.042Z" stroke="black" stroke-width="3.63333" stroke-miterlimit="10"/>
<path d="M1604.25 912.462L1559.53 804.482C1592.4 790.392 1624.72 775.232 1656.44 759.042L1708.1 863.772C1674.11 881.122 1639.48 897.372 1604.25 912.462Z" stroke="black" stroke-width="3.63333" stroke-miterlimit="10"/>
<path d="M1559.53 804.481L1604.25 912.461C1569.17 927.491 1533.5 941.381 1497.29 954.081L1459.7 843.331C1493.49 831.471 1526.79 818.511 1559.53 804.481Z" stroke="black" stroke-width="3.63333" stroke-miterlimit="10"/>
<path d="M1459.7 843.332L1497.29 954.082C1461.29 966.712 1424.74 978.172 1387.7 988.412L1357.41 875.372C1391.98 865.812 1426.09 855.112 1459.7 843.332Z" stroke="black" stroke-width="3.63333" stroke-miterlimit="10"/>
<path d="M1048.26 1045.96C1010.27 1048.51 971.964 1049.84 933.346 1049.84V932.702C969.39 932.702 1005.15 931.462 1040.6 929.082L1048.26 1045.96Z" stroke="black" stroke-width="3.63333" stroke-miterlimit="10"/>
<path d="M1154.66 1035.48C1119.51 1040.06 1084.03 1043.55 1048.26 1045.96L1040.59 929.082C1073.98 926.832 1107.1 923.572 1139.9 919.302L1154.66 1035.48Z" stroke="black" stroke-width="3.63333" stroke-miterlimit="10"/>
<path d="M1357.41 875.372L1387.7 988.412C1348.37 999.282 1308.47 1008.73 1268.07 1016.79L1245.76 901.852C1283.46 894.332 1320.7 885.512 1357.41 875.372Z" stroke="black" stroke-width="3.63333" stroke-miterlimit="10"/>
<path d="M1245.76 901.852L1268.07 1016.79C1230.68 1024.24 1192.87 1030.51 1154.66 1035.48L1139.91 919.302C1175.57 914.662 1210.86 908.812 1245.76 901.852Z" stroke="black" stroke-width="3.63333" stroke-miterlimit="10"/>
<path d="M976.587 111.444C980.435 111.237 984.305 111.111 988.138 110.848C995.146 110.366 1002.11 109.722 1009.07 109.062C1011.05 108.874 1013.06 108.748 1015.05 108.544C1022.27 107.807 1029.45 106.903 1036.62 105.97L1051.37 222.14C1012.72 227.181 973.346 229.862 933.346 229.862V112.722C942.564 112.722 951.75 112.559 960.894 112.248C966.15 112.066 971.361 111.725 976.587 111.444Z" stroke="black" stroke-width="3.63333" stroke-miterlimit="10"/>
<path d="M1039.69 105.598C1040.33 105.513 1040.98 105.45 1041.62 105.365C1050.43 104.161 1059.18 102.809 1067.9 101.32C1067.91 101.317 1067.93 101.317 1067.94 101.313C1094.2 96.8244 1120.01 91.0353 1145.34 84.0353C1145.35 84.0323 1145.36 84.0283 1145.37 84.0283L1175.66 197.069C1135.27 208.235 1093.76 216.613 1051.37 222.143L1036.62 105.969C1037.64 105.839 1038.67 105.735 1039.69 105.598Z" stroke="black" stroke-width="3.63333" stroke-miterlimit="10"/>
<path d="M1246.61 48.52C1246.69 48.483 1246.77 48.453 1246.85 48.416C1254.54 45.12 1262.14 41.69 1269.7 38.16C1270.23 37.912 1270.78 37.686 1271.31 37.434C1278.37 34.12 1285.35 30.668 1292.3 27.153C1293.29 26.653 1294.3 26.19 1295.28 25.683C1301.83 22.338 1308.3 18.857 1314.74 15.334C1316.07 14.608 1317.43 13.9269 1318.76 13.1899C1326.48 8.91594 1334.12 4.51998 1341.68 0.000976562L1400.01 101.038C1365.13 121.89 1328.78 140.46 1291.15 156.571L1246.43 48.5939C1246.49 48.5679 1246.55 48.546 1246.61 48.52Z" stroke="black" stroke-width="3.63333" stroke-miterlimit="10"/>
<path d="M1145.37 84.0278C1180.04 74.4458 1213.78 62.5868 1246.43 48.5908L1291.15 156.572C1253.84 172.554 1215.28 186.117 1175.66 197.069L1145.37 84.0278Z" stroke="black" stroke-width="3.63333" stroke-miterlimit="10"/>
<path d="M1266.53 536.192C1302.79 526.172 1338.33 514.412 1373.22 501.292L1413.22 611.192C1375.16 625.512 1336.38 638.342 1296.83 649.282L1266.53 536.192Z" stroke="black" stroke-width="3.63333" stroke-miterlimit="10"/>
<path d="M1266.53 536.192L1296.83 649.282C1257.67 660.102 1217.77 669.072 1177.32 676.402L1156.99 561.072C1194.06 554.342 1230.63 546.112 1266.53 536.192Z" stroke="black" stroke-width="3.63333" stroke-miterlimit="10"/>
<path d="M1575.02 404.151L1633.35 505.191C1598.44 526.061 1562.52 545.371 1525.72 563.091L1476.35 457.211C1510.09 440.981 1543.01 423.281 1575.02 404.151Z" stroke="black" stroke-width="3.63333" stroke-miterlimit="10"/>
<path d="M1525.72 563.092C1489.07 580.722 1451.53 596.782 1413.22 611.192L1373.22 501.292C1408.34 488.082 1442.75 473.372 1476.35 457.212L1525.72 563.092Z" stroke="black" stroke-width="3.63333" stroke-miterlimit="10"/>
<path d="M1476.35 457.212C1442.75 473.382 1408.34 488.082 1373.22 501.292L1333.23 391.422C1365.16 379.412 1396.44 366.052 1426.99 351.352L1476.35 457.212Z" stroke="black" stroke-width="3.63333" stroke-miterlimit="10"/>
<path d="M1426.98 351.352C1457.66 336.602 1487.59 320.502 1516.68 303.112L1575.02 404.152C1543.01 423.282 1510.09 440.982 1476.35 457.212L1426.98 351.352Z" stroke="black" stroke-width="3.63333" stroke-miterlimit="10"/>
<path d="M1266.53 536.192L1236.24 423.152C1269.2 414.042 1301.51 403.352 1333.23 391.422L1373.22 501.292C1338.33 514.412 1302.79 526.172 1266.53 536.192Z" stroke="black" stroke-width="3.63333" stroke-miterlimit="10"/>
<path d="M1156.98 561.071L1177.32 676.401C1137.39 683.651 1096.87 689.171 1055.84 692.881L1045.63 576.191C1083.24 572.781 1120.38 567.711 1156.98 561.071Z" stroke="black" stroke-width="3.63333" stroke-miterlimit="10"/>
<path d="M1055.84 692.882C1015.48 696.532 974.636 698.422 933.344 698.422V581.282C971.196 581.282 1008.64 579.542 1045.63 576.192L1055.84 692.882Z" stroke="black" stroke-width="3.63333" stroke-miterlimit="10"/>
<path d="M1045.63 576.192C1008.64 579.542 971.196 581.282 933.344 581.282V464.142C967.755 464.142 1001.8 462.562 1035.42 459.512L1045.63 576.192Z" stroke="black" stroke-width="3.63333" stroke-miterlimit="10"/>
<path d="M1035.42 459.512C1069.61 456.422 1103.37 451.812 1136.65 445.762L1156.99 561.072C1120.38 567.712 1083.24 572.782 1045.63 576.192L1035.42 459.512Z" stroke="black" stroke-width="3.63333" stroke-miterlimit="10"/>
<path d="M1266.53 536.191C1230.63 546.111 1194.06 554.341 1156.98 561.071L1136.65 445.771C1170.36 439.651 1203.61 432.171 1236.24 423.151L1266.53 536.191Z" stroke="black" stroke-width="3.63333" stroke-miterlimit="10"/>
<path d="M608.042 293.912C642.69 305.542 678.131 315.392 714.29 323.302L689.949 437.812C649.775 429.012 610.398 418.072 571.898 405.152L608.042 293.912Z" stroke="black" stroke-width="3.63333" stroke-miterlimit="10"/>
<path d="M823.161 341.062L810.916 457.542C769.905 453.132 729.564 446.472 689.953 437.802L714.29 323.302C749.942 331.102 786.25 337.092 823.161 341.062Z" stroke="black" stroke-width="3.63333" stroke-miterlimit="10"/>
<path d="M458.156 360.032C421.034 342.922 384.904 323.972 350.004 303.112L408.337 202.074C439.748 220.852 472.263 237.902 505.674 253.302L458.156 360.032Z" stroke="black" stroke-width="3.63333" stroke-miterlimit="10"/>
<path d="M933.344 347.001V464.141C891.981 464.141 851.151 461.862 810.918 457.542L823.163 341.062C859.37 344.952 896.118 347.001 933.344 347.001Z" stroke="black" stroke-width="3.63333" stroke-miterlimit="10"/>
<path d="M608.043 293.912L571.899 405.152C533.032 392.102 495.069 377.042 458.154 360.032L505.673 253.302C538.899 268.612 573.062 282.162 608.043 293.912Z" stroke="black" stroke-width="3.63333" stroke-miterlimit="10"/>
<path d="M1361.01 253.302L1408.53 360.032C1371.62 377.042 1333.65 392.102 1294.79 405.152L1258.64 293.912C1293.63 282.162 1327.79 268.612 1361.01 253.302Z" stroke="black" stroke-width="3.63333" stroke-miterlimit="10"/>
<path d="M1043.53 341.062L1055.77 457.542C1015.54 461.862 974.705 464.141 933.346 464.141V347.001C970.568 347.001 1007.32 344.952 1043.53 341.062Z" stroke="black" stroke-width="3.63333" stroke-miterlimit="10"/>
<path d="M1458.35 202.076L1516.68 303.112C1481.79 323.972 1445.65 342.922 1408.53 360.032L1361.01 253.302C1394.42 237.902 1426.94 220.854 1458.35 202.076Z" stroke="black" stroke-width="3.63333" stroke-miterlimit="10"/>
<path d="M1152.4 323.302L1176.74 437.812C1137.12 446.472 1096.78 453.132 1055.77 457.542L1043.53 341.052C1080.44 337.092 1116.75 331.102 1152.4 323.302Z" stroke="black" stroke-width="3.63333" stroke-miterlimit="10"/>
<path d="M1258.64 293.912L1294.79 405.152C1256.29 418.072 1216.91 429.012 1176.74 437.812L1152.4 323.302C1188.55 315.392 1224 305.542 1258.64 293.912Z" stroke="black" stroke-width="3.63333" stroke-miterlimit="10"/>
<path d="M738.63 208.794L714.289 323.302C678.134 315.392 642.693 305.542 608.045 293.912L644.189 182.668C674.989 193.008 706.489 201.76 738.63 208.794Z" stroke="black" stroke-width="3.63333" stroke-miterlimit="10"/>
<path d="M835.404 224.578L823.16 341.062C786.249 337.092 749.941 331.102 714.293 323.302L738.63 208.793C770.319 215.726 802.593 221.052 835.404 224.578Z" stroke="black" stroke-width="3.63333" stroke-miterlimit="10"/>
<path d="M933.344 229.861V347.002C896.118 347.002 859.37 344.952 823.162 341.062L835.403 224.58C867.588 228.035 900.255 229.861 933.344 229.861Z" stroke="black" stroke-width="3.63333" stroke-miterlimit="10"/>
<path d="M608.044 293.912C573.063 282.162 538.9 268.612 505.674 253.302L553.192 146.572C582.726 160.183 613.096 172.228 644.189 182.669L608.044 293.912Z" stroke="black" stroke-width="3.63333" stroke-miterlimit="10"/>
<path d="M408.338 202.075L466.671 101.038C494.59 117.727 523.494 132.882 553.194 146.571L505.675 253.302C472.264 237.902 439.745 220.853 408.338 202.075Z" stroke="black" stroke-width="3.63333" stroke-miterlimit="10"/>
<path d="M1222.5 182.669L1258.64 293.912C1223.99 305.542 1188.55 315.392 1152.39 323.302L1128.06 208.795C1160.2 201.761 1191.7 193.009 1222.5 182.669Z" stroke="black" stroke-width="3.63333" stroke-miterlimit="10"/>
<path d="M1128.06 208.794L1152.4 323.302C1116.75 331.102 1080.44 337.092 1043.53 341.052L1031.28 224.579C1064.09 221.053 1096.37 215.727 1128.06 208.794Z" stroke="black" stroke-width="3.63333" stroke-miterlimit="10"/>
<path d="M1313.5 146.572C1343.19 132.883 1372.1 117.728 1400.02 101.039L1458.35 202.076C1426.94 220.854 1394.42 237.902 1361.01 253.302L1313.5 146.572Z" stroke="black" stroke-width="3.63333" stroke-miterlimit="10"/>
<path d="M1258.64 293.912L1222.5 182.669C1253.59 172.228 1283.96 160.183 1313.5 146.572L1361.01 253.302C1327.79 268.612 1293.63 282.162 1258.64 293.912Z" stroke="black" stroke-width="3.63333" stroke-miterlimit="10"/>
<path d="M1031.28 224.578L1043.53 341.062C1007.32 344.952 970.57 347.002 933.344 347.002V229.859C966.433 229.859 999.099 228.037 1031.28 224.578Z" stroke="black" stroke-width="3.63333" stroke-miterlimit="10"/>
<path d="M378.123 707.422L335.412 816.252C297.516 800.862 260.331 784.052 223.912 765.902L274.586 660.672C308.405 677.532 342.934 693.142 378.123 707.422Z" stroke="black" stroke-width="3.63333" stroke-miterlimit="10"/>
<path d="M378.123 707.432C413.134 721.642 448.779 734.582 485.034 746.132L450.549 857.932C411.505 845.502 373.12 831.562 335.412 816.252L378.123 707.432Z" stroke="black" stroke-width="3.63333" stroke-miterlimit="10"/>
<path d="M594.706 776.402L568.658 890.532C528.703 881.142 489.303 870.282 450.547 857.932L485.032 746.132C521.021 757.602 557.606 767.682 594.706 776.402Z" stroke="black" stroke-width="3.63333" stroke-miterlimit="10"/>
<path d="M706.436 798.171L688.981 913.981C648.351 907.701 608.232 899.841 568.658 890.531L594.706 776.401C631.455 785.041 668.706 792.341 706.436 798.171Z" stroke="black" stroke-width="3.63333" stroke-miterlimit="10"/>
<path d="M819.552 811.182L810.8 927.982C769.748 924.842 729.115 920.182 688.982 913.982L706.433 798.182C743.704 803.942 781.433 808.262 819.552 811.182Z" stroke="black" stroke-width="3.63333" stroke-miterlimit="10"/>
<path d="M223.913 765.892C187.376 747.682 151.59 728.142 116.668 707.262L175.001 606.222C207.431 625.612 240.661 643.752 274.587 660.672L223.913 765.892Z" stroke="black" stroke-width="3.63333" stroke-miterlimit="10"/>
<path d="M933.343 815.562V932.702C892.11 932.702 851.255 931.072 810.799 927.982L819.551 811.182C857.117 814.052 895.055 815.562 933.343 815.562Z" stroke="black" stroke-width="3.63333" stroke-miterlimit="10"/>
<path d="M519.519 634.332L485.034 746.132C448.779 734.582 413.134 721.642 378.123 707.432L420.834 598.602C453.149 611.732 486.053 623.672 519.519 634.332Z" stroke="black" stroke-width="3.63333" stroke-miterlimit="10"/>
<path d="M620.756 662.282L594.707 776.412C557.607 767.682 521.022 757.602 485.033 746.142L519.519 634.342C552.737 644.922 586.511 654.222 620.756 662.282Z" stroke="black" stroke-width="3.63333" stroke-miterlimit="10"/>
<path d="M723.89 682.371L706.435 798.172C668.705 792.342 631.453 785.041 594.705 776.401L620.757 662.271C654.676 670.251 689.064 676.991 723.89 682.371Z" stroke="black" stroke-width="3.63333" stroke-miterlimit="10"/>
<path d="M828.307 694.372C862.981 697.022 898.003 698.422 933.344 698.422V815.562C895.055 815.562 857.118 814.052 819.555 811.182L828.307 694.372Z" stroke="black" stroke-width="3.63333" stroke-miterlimit="10"/>
<path d="M706.436 798.172L723.891 682.372C758.291 687.692 793.121 691.692 828.306 694.372L819.554 811.172C781.436 808.262 743.702 803.942 706.436 798.172Z" stroke="black" stroke-width="3.63333" stroke-miterlimit="10"/>
<path d="M175.002 606.222L233.335 505.192C263.269 523.082 293.943 539.832 325.261 555.442L274.587 660.672C240.658 643.752 207.428 625.612 175.002 606.222Z" stroke="black" stroke-width="3.63333" stroke-miterlimit="10"/>
<path d="M378.123 707.422C342.934 693.142 308.405 677.532 274.586 660.672L325.26 555.442C356.475 571.012 388.349 585.412 420.834 598.602L378.123 707.422Z" stroke="black" stroke-width="3.63333" stroke-miterlimit="10"/>
<path d="M1691.69 606.222L1750.02 707.262C1715.1 728.142 1679.32 747.682 1642.77 765.892L1592.1 660.672C1626.03 643.752 1659.26 625.612 1691.69 606.222Z" stroke="black" stroke-width="3.63333" stroke-miterlimit="10"/>
<path d="M1381.65 746.132L1416.14 857.932C1377.38 870.282 1337.98 881.142 1298.03 890.532L1271.98 776.402C1309.08 767.682 1345.66 757.602 1381.65 746.132Z" stroke="black" stroke-width="3.63333" stroke-miterlimit="10"/>
<path d="M1160.25 798.172L1177.71 913.982C1137.57 920.182 1096.94 924.842 1055.89 927.982L1047.13 811.172C1085.25 808.262 1122.99 803.942 1160.25 798.172Z" stroke="black" stroke-width="3.63333" stroke-miterlimit="10"/>
<path d="M1055.89 927.982C1015.43 931.072 974.577 932.702 933.344 932.702V815.562C971.633 815.562 1009.57 814.052 1047.14 811.182L1055.89 927.982Z" stroke="black" stroke-width="3.63333" stroke-miterlimit="10"/>
<path d="M1488.56 707.422L1531.28 816.252C1493.57 831.562 1455.18 845.492 1416.14 857.932L1381.65 746.132C1417.91 734.582 1453.55 721.642 1488.56 707.422Z" stroke="black" stroke-width="3.63333" stroke-miterlimit="10"/>
<path d="M1592.1 660.672L1642.77 765.892C1606.36 784.052 1569.17 800.862 1531.27 816.252L1488.56 707.422C1523.75 693.142 1558.29 677.532 1592.1 660.672Z" stroke="black" stroke-width="3.63333" stroke-miterlimit="10"/>
<path d="M1271.98 776.401L1298.03 890.531C1258.45 899.841 1218.34 907.701 1177.71 913.981L1160.25 798.171C1197.98 792.341 1235.23 785.041 1271.98 776.401Z" stroke="black" stroke-width="3.63333" stroke-miterlimit="10"/>
<path d="M1347.17 634.332L1381.65 746.132C1345.66 757.602 1309.08 767.682 1271.98 776.402L1245.93 662.272C1280.18 654.232 1313.95 644.922 1347.17 634.332Z" stroke="black" stroke-width="3.63333" stroke-miterlimit="10"/>
<path d="M1445.86 598.602L1488.56 707.422C1453.56 721.642 1417.91 734.582 1381.66 746.132L1347.17 634.332C1380.63 623.672 1413.54 611.722 1445.86 598.602Z" stroke="black" stroke-width="3.63333" stroke-miterlimit="10"/>
<path d="M1245.93 662.282L1271.98 776.412C1235.23 785.042 1197.98 792.342 1160.25 798.182L1142.8 682.372C1177.62 676.992 1212.01 670.252 1245.93 662.282Z" stroke="black" stroke-width="3.63333" stroke-miterlimit="10"/>
<path d="M1160.25 798.172C1122.99 803.942 1085.25 808.262 1047.13 811.172L1038.38 694.372C1073.57 691.692 1108.4 687.692 1142.8 682.372L1160.25 798.172Z" stroke="black" stroke-width="3.63333" stroke-miterlimit="10"/>
<path d="M1488.56 707.422L1445.86 598.602C1478.34 585.412 1510.21 571.012 1541.43 555.442L1592.1 660.672C1558.28 677.532 1523.75 693.142 1488.56 707.422Z" stroke="black" stroke-miterlimit="10"/>
<path d="M1047.13 811.182C1009.57 814.052 971.631 815.562 933.342 815.562V698.422C968.686 698.422 1003.7 697.022 1038.38 694.372L1047.13 811.182Z" stroke="black" stroke-miterlimit="10"/>
<path d="M1541.43 555.442C1572.75 539.832 1603.42 523.082 1633.35 505.192L1691.68 606.222C1659.26 625.612 1626.03 643.752 1592.1 660.672L1541.43 555.442Z" stroke="black" stroke-width="3.63333" stroke-miterlimit="10"/>
</g>
<defs>
<clipPath id="clip0_447_126">
<rect width="1866.69" height="1166.98" fill="white"/>
</clipPath>
</defs>
</svg>
